<mxfile host="app.diagrams.net" modified="2022-04-22T11:59:35.260Z" agent="5.0 (Macintosh; Intel Mac OS X 10_15_7) AppleWebKit/537.36 (KHTML, like Gecko) Chrome/100.0.4896.127 Safari/537.36" etag="uJg3oozwgiw3tPv-sTi2" version="17.4.4" type="github">
  <diagram id="AgyqedGUNitpiJBYRBxL" name="Page-1">
    <mxGraphModel dx="3126" dy="-2616" grid="1" gridSize="10" guides="1" tooltips="1" connect="1" arrows="1" fold="1" page="1" pageScale="1" pageWidth="850" pageHeight="1100" math="0" shadow="0">
      <root>
        <mxCell id="0" />
        <mxCell id="1" parent="0" />
        <mxCell id="N-wT82c_DgSNSVkc0qa--1" style="edgeStyle=orthogonalEdgeStyle;rounded=0;orthogonalLoop=1;jettySize=auto;html=1;entryX=0;entryY=0.5;entryDx=0;entryDy=0;" edge="1" parent="1" source="N-wT82c_DgSNSVkc0qa--2" target="N-wT82c_DgSNSVkc0qa--5">
          <mxGeometry relative="1" as="geometry" />
        </mxCell>
        <mxCell id="N-wT82c_DgSNSVkc0qa--2" value="" style="ellipse;shape=doubleEllipse;whiteSpace=wrap;html=1;aspect=fixed;" vertex="1" parent="1">
          <mxGeometry x="-1580" y="3580" width="40" height="40" as="geometry" />
        </mxCell>
        <mxCell id="N-wT82c_DgSNSVkc0qa--3" style="edgeStyle=orthogonalEdgeStyle;curved=1;rounded=0;orthogonalLoop=1;jettySize=auto;html=1;" edge="1" parent="1" source="N-wT82c_DgSNSVkc0qa--5" target="N-wT82c_DgSNSVkc0qa--7">
          <mxGeometry relative="1" as="geometry">
            <Array as="points">
              <mxPoint x="-1420" y="3600" />
            </Array>
          </mxGeometry>
        </mxCell>
        <mxCell id="N-wT82c_DgSNSVkc0qa--4" style="edgeStyle=orthogonalEdgeStyle;rounded=0;orthogonalLoop=1;jettySize=auto;html=1;entryX=0.25;entryY=0;entryDx=0;entryDy=0;exitX=0.25;exitY=1;exitDx=0;exitDy=0;" edge="1" parent="1" source="N-wT82c_DgSNSVkc0qa--5" target="N-wT82c_DgSNSVkc0qa--19">
          <mxGeometry relative="1" as="geometry">
            <Array as="points" />
          </mxGeometry>
        </mxCell>
        <mxCell id="N-wT82c_DgSNSVkc0qa--5" value="Created" style="rounded=1;whiteSpace=wrap;html=1;" vertex="1" parent="1">
          <mxGeometry x="-1460" y="3570" width="120" height="60" as="geometry" />
        </mxCell>
        <mxCell id="N-wT82c_DgSNSVkc0qa--6" style="edgeStyle=none;rounded=0;orthogonalLoop=1;jettySize=auto;html=1;" edge="1" parent="1" source="N-wT82c_DgSNSVkc0qa--7" target="N-wT82c_DgSNSVkc0qa--9">
          <mxGeometry relative="1" as="geometry" />
        </mxCell>
        <mxCell id="N-wT82c_DgSNSVkc0qa--7" value="In progress" style="rounded=1;whiteSpace=wrap;html=1;" vertex="1" parent="1">
          <mxGeometry x="-1272.5" y="3570" width="120" height="60" as="geometry" />
        </mxCell>
        <mxCell id="N-wT82c_DgSNSVkc0qa--8" style="edgeStyle=orthogonalEdgeStyle;rounded=0;orthogonalLoop=1;jettySize=auto;html=1;entryX=0;entryY=0.5;entryDx=0;entryDy=0;" edge="1" parent="1" source="N-wT82c_DgSNSVkc0qa--9" target="N-wT82c_DgSNSVkc0qa--15">
          <mxGeometry relative="1" as="geometry" />
        </mxCell>
        <mxCell id="N-wT82c_DgSNSVkc0qa--9" value="Completed" style="rounded=1;whiteSpace=wrap;html=1;" vertex="1" parent="1">
          <mxGeometry x="-1092.5" y="3570" width="120" height="60" as="geometry" />
        </mxCell>
        <mxCell id="N-wT82c_DgSNSVkc0qa--10" value="" style="ellipse;shape=doubleEllipse;whiteSpace=wrap;html=1;aspect=fixed;" vertex="1" parent="1">
          <mxGeometry x="-605" y="3510" width="40" height="40" as="geometry" />
        </mxCell>
        <mxCell id="N-wT82c_DgSNSVkc0qa--11" style="edgeStyle=orthogonalEdgeStyle;rounded=0;orthogonalLoop=1;jettySize=auto;html=1;entryX=0;entryY=0.5;entryDx=0;entryDy=0;" edge="1" parent="1" source="N-wT82c_DgSNSVkc0qa--12" target="N-wT82c_DgSNSVkc0qa--10">
          <mxGeometry relative="1" as="geometry" />
        </mxCell>
        <mxCell id="N-wT82c_DgSNSVkc0qa--12" value="Accepted" style="rounded=1;whiteSpace=wrap;html=1;" vertex="1" parent="1">
          <mxGeometry x="-790" y="3500" width="120" height="60" as="geometry" />
        </mxCell>
        <mxCell id="N-wT82c_DgSNSVkc0qa--13" style="edgeStyle=orthogonalEdgeStyle;rounded=0;orthogonalLoop=1;jettySize=auto;html=1;entryX=0;entryY=0.5;entryDx=0;entryDy=0;" edge="1" parent="1" source="N-wT82c_DgSNSVkc0qa--15" target="N-wT82c_DgSNSVkc0qa--12">
          <mxGeometry relative="1" as="geometry">
            <mxPoint x="-730" y="3540" as="targetPoint" />
            <Array as="points">
              <mxPoint x="-895" y="3530" />
            </Array>
          </mxGeometry>
        </mxCell>
        <mxCell id="N-wT82c_DgSNSVkc0qa--14" style="edgeStyle=orthogonalEdgeStyle;rounded=0;orthogonalLoop=1;jettySize=auto;html=1;entryX=0;entryY=0.5;entryDx=0;entryDy=0;exitX=0.5;exitY=1;exitDx=0;exitDy=0;" edge="1" parent="1" source="N-wT82c_DgSNSVkc0qa--15" target="N-wT82c_DgSNSVkc0qa--17">
          <mxGeometry relative="1" as="geometry" />
        </mxCell>
        <mxCell id="N-wT82c_DgSNSVkc0qa--15" value="" style="rhombus;whiteSpace=wrap;html=1;" vertex="1" parent="1">
          <mxGeometry x="-920" y="3580" width="50" height="40" as="geometry" />
        </mxCell>
        <mxCell id="N-wT82c_DgSNSVkc0qa--16" style="edgeStyle=orthogonalEdgeStyle;rounded=0;orthogonalLoop=1;jettySize=auto;html=1;entryX=0.5;entryY=1;entryDx=0;entryDy=0;" edge="1" parent="1" source="N-wT82c_DgSNSVkc0qa--17" target="N-wT82c_DgSNSVkc0qa--7">
          <mxGeometry relative="1" as="geometry">
            <mxPoint x="-1230" y="3740" as="targetPoint" />
            <Array as="points">
              <mxPoint x="-730" y="3700" />
              <mxPoint x="-1212" y="3700" />
            </Array>
          </mxGeometry>
        </mxCell>
        <mxCell id="N-wT82c_DgSNSVkc0qa--17" value="Rejected" style="rounded=1;whiteSpace=wrap;html=1;" vertex="1" parent="1">
          <mxGeometry x="-790" y="3620" width="120" height="60" as="geometry" />
        </mxCell>
        <mxCell id="N-wT82c_DgSNSVkc0qa--18" style="edgeStyle=orthogonalEdgeStyle;rounded=0;orthogonalLoop=1;jettySize=auto;html=1;" edge="1" parent="1" source="N-wT82c_DgSNSVkc0qa--19">
          <mxGeometry relative="1" as="geometry">
            <mxPoint x="-1380" y="3630" as="targetPoint" />
            <Array as="points">
              <mxPoint x="-1380" y="3630" />
            </Array>
          </mxGeometry>
        </mxCell>
        <mxCell id="N-wT82c_DgSNSVkc0qa--19" value="Update" style="rounded=1;whiteSpace=wrap;html=1;" vertex="1" parent="1">
          <mxGeometry x="-1460" y="3690" width="120" height="60" as="geometry" />
        </mxCell>
        <mxCell id="N-wT82c_DgSNSVkc0qa--20" value="&lt;h1&gt;Task Process&lt;/h1&gt;&lt;p&gt;Changes:&amp;nbsp;&lt;/p&gt;&lt;p&gt;Task can be updated by the same owner that created it.&lt;/p&gt;&lt;p&gt;After task is completed, it can be accepted or rejected. If rejected, it is moved back into progress. If accepted, it is completed and removed from storage.&lt;/p&gt;&lt;p&gt;&lt;br&gt;&lt;/p&gt;" style="text;html=1;strokeColor=none;fillColor=none;spacing=5;spacingTop=-20;whiteSpace=wrap;overflow=hidden;rounded=0;" vertex="1" parent="1">
          <mxGeometry x="-550" y="3480" width="190" height="230" as="geometry" />
        </mxCell>
      </root>
    </mxGraphModel>
  </diagram>
</mxfile>
